<svg class="h-1/4" xmlns="http://www.w3.org/2000/svg" xmlns:xlink="http://www.w3.org/1999/xlink"
viewBox="0 0 78 51.796">
<g transform="translate(652.029 -294.836)">
    <g transform="translate(-652.029 294.836)">
        <g transform="translate(656.898 -293.213)" fill="#fff" stroke-miterlimit="10">
            <path
                d="M-605.861,303.925a18.906,18.906,0,0,0-18.906,18.907h37.813A18.908,18.908,0,0,0-605.861,303.925Z"
                stroke="#000" stroke-width="2" />
        </g>
        <g transform="translate(655.888 -290.158)" fill="none" stroke-miterlimit="10">
            <path
                d="M-584.055,321.032h-41.589a4.779,4.779,0,0,0-4.776,4.778,4.777,4.777,0,0,0,4.776,4.776h41.589a4.777,4.777,0,0,0,4.776-4.776A4.779,4.779,0,0,0-584.055,321.032Z"
                stroke="#000" stroke-width="2" />
        </g>
        <g transform="translate(656.708 -288.201)" fill="none" stroke-miterlimit="10">
            <path xmlns="http://www.w3.org/2000/svg"
                d="M -590.1238403320312 338.4141845703125 L -622.8065185546875 338.4141845703125 C -623.92333984375 338.4141845703125 -624.8319091796875 337.5066223144531 -624.8319091796875 336.3910522460938 L -624.8319091796875 332.989013671875 L -588.0984497070312 332.989013671875 L -588.0984497070312 336.3910522460938 C -588.0984497070312 337.5066223144531 -589.0070190429688 338.4141845703125 -590.1238403320312 338.4141845703125 Z"
                stroke="#000" stroke-width="2" />
        </g>
        <g transform="translate(652.029 -294.836)" fill="none" stroke-miterlimit="10">
            <path xmlns="http://www.w3.org/2000/svg"
                d="M -630.6072998046875 345.6318969726562 L -651.0289916992188 345.6318969726562 L -651.0289916992188 314.582763671875 L -638.6659545898438 314.582763671875 L -637.6659545898438 314.582763671875 L -637.6659545898438 313.582763671875 L -637.6659545898438 303.1274108886719 C -637.6659545898438 301.2206726074219 -636.8475952148438 299.5260314941406 -635.2993774414062 298.2266540527344 C -633.4328002929688 296.6602172851562 -630.8726196289062 295.9145812988281 -629.0429077148438 295.8420715332031 L -629.1026611328125 296.1812438964844 C -630.7933959960938 296.2596740722656 -633.2796020507812 296.99169921875 -635.0739135742188 298.49658203125 C -636.5406494140625 299.7269592285156 -637.31591796875 301.3282470703125 -637.31591796875 303.1274108886719 L -637.31591796875 313.582763671875 L -637.31591796875 314.582763671875 L -636.31591796875 314.582763671875 L -630.6072998046875 314.582763671875 L -630.6072998046875 345.6318969726562 Z"
                stroke="#000" stroke-width="2" />
        </g>
    </g>
</g>
</svg>